<svg xmlns="http://www.w3.org/2000/svg" xmlns:cc="http://web.resource.org/cc/" xmlns:svg="http://www.w3.org/2000/svg" id="svg2" width="674.715" height="672.056" version="1.0"><metadata id="metadata7"/><g id="layer1" transform="translate(-10.15551,-175.0227)"><path id="path2774" fill="maroon" fill-opacity="1" stroke="#000" stroke-dasharray="none" stroke-miterlimit="4" stroke-opacity="1" stroke-width="7.1" d="M 501.03566,387.68182 A 127.27922,127.27922 0 1 1 246.47722,387.68182" transform="matrix(2.578609,0,0,-2.578609,-616.2588,1512.06)"/><path id="path2784" fill="#f2f2f2" fill-opacity="1" stroke="#000" stroke-dasharray="none" stroke-miterlimit="4" stroke-opacity="1" stroke-width="7.1" d="M 501.03566,387.68182 A 127.27922,127.27922 0 1 1 246.47722,387.68182" transform="matrix(2.577502,0,0,2.577502,-615.9308,-489.3849)"/><rect id="rect2796" width="640.968" height="54.335" x="27.917" y="-543.584" fill="#000" fill-opacity="1" stroke="#000" stroke-dasharray="none" stroke-miterlimit="4" stroke-opacity="1" stroke-width="18.308" transform="scale(1,-1)"/><path id="path2798" fill="#f2f2f2" fill-opacity="1" stroke="#000" stroke-dasharray="none" stroke-miterlimit="4" stroke-opacity="1" stroke-width="4.33" d="M 346.66304,536.97405 A 20.535715,20.535715 0 1 1 346.6761,536.97333" transform="matrix(0,-4.180021,-4.179929,0,2511.532,1956.897)"/><path id="path2802" fill="#999" fill-opacity="1" stroke="none" stroke-dasharray="none" stroke-miterlimit="4" stroke-opacity="1" stroke-width="7.1" d="M 346.66304,536.97405 A 20.535715,20.535715 0 1 1 346.94449,536.95664" transform="matrix(0,-2.251635,-2.251585,0,1515.508,1288.684)"/></g></svg>